<?xml version="1.0" standalone="no"?>
<!DOCTYPE svg PUBLIC "-//W3C//DTD SVG 1.1//EN"
  "http://www.w3.org/Graphics/SVG/1.1/DTD/svg11.dtd">
<svg version="1.1" xmlns="http://www.w3.org/2000/svg" xmlns:xlink="http://www.w3.org/1999/xlink" width="1792" height="1063" viewBox="-992 -32 1792 1063" id="ccdiagram"><filter id="grayscale"><feColorMatrix type="matrix" values="0.3333 0.3333 0.3333 0 0 0.3333 0.3333 0.3333 0 0 0.3333 0.3333 0.3333 0 0 0 0 0 1 0"></feColorMatrix></filter><defs><style type="text/css">@import url('https://fonts.googleapis.com/css?family=Open+Sans:400,700|Inconsolata:400');</style></defs><g><g pointer-events="auto"></g><g pointer-events="auto"></g><g></g><g pointer-events="auto"></g><g></g><g pointer-events="auto"><g opacity="1"><g id="b5bad988-e989-4bbc-9bbf-9e8b0e06440d"><svg x="-112" y="287" overflow="visible"><polygon points="0 0, 448 259, 384 296, -64 37" fill="#f5b720"></polygon><polygon points="0 0, 448 259, 384 296, -64 37" fill="none" stroke-width="20" stroke="#f5b720" opacity="1"></polygon><g cursor="nwse-resize"><polygon points="0 0, -19 -11, 13 -30, -83 -11, -115 44, -83 26, -64 37" fill="#f5b720"></polygon><polygon points="448 259, 467 270, 499 252, 467 307, 371 326, 403 307, 384 296" fill="#f5b720"></polygon></g></svg></g></g></g><g pointer-events="none"></g><g pointer-events="auto"><g><g cursor="cell"><line x1="-208" y1="601" x2="-154" y2="570" stroke="red" stroke-width="8" opacity="0"></line><line x1="-208" y1="601" x2="-154" y2="570" stroke="#000000" stroke-width="2" stroke-linecap="round"></line><polygon points="-144 564, -170 570, -156 571, -153 579, -144 564" stroke-linejoin="round" fill="#000000" stroke="#000000" stroke-width="1"></polygon></g></g><g><g cursor="cell"><line x1="-400" y1="305" x2="-294" y2="244" stroke="red" stroke-width="8" opacity="0"></line><line x1="-400" y1="305" x2="-294" y2="244" stroke="#000000" stroke-width="2" stroke-linecap="round"></line><polygon points="-285 239, -310 244, -297 246, -294 253, -285 239" stroke-linejoin="round" fill="#000000" stroke="#000000" stroke-width="1"></polygon></g></g><g><g cursor="cell"><line x1="-208" y1="564" x2="-262" y2="533" stroke="red" stroke-width="8" opacity="0"></line><line x1="-208" y1="564" x2="-262" y2="533" stroke="#000000" stroke-width="2" stroke-linecap="round"></line><polygon points="-272 527, -263 542, -260 534, -246 533, -272 527" stroke-linejoin="round" fill="#000000" stroke="#000000" stroke-width="1"></polygon></g></g><g><g cursor="cell"><line x1="-281" y1="670" x2="-195" y2="720" stroke="red" stroke-width="8" opacity="0"></line><line x1="-281" y1="670" x2="-195" y2="720" stroke="#000000" stroke-width="2" stroke-linecap="round"></line><polygon points="-185 726, -194 711, -197 718, -210 720, -185 726" stroke-linejoin="round" fill="#000000" stroke="#000000" stroke-width="1"></polygon></g></g><g><g cursor="cell"><line x1="-284" y1="645" x2="-208" y2="601" stroke="red" stroke-width="8" opacity="0"></line><line x1="-284" y1="645" x2="-208" y2="601" stroke="#000000" stroke-width="2" stroke-linecap="round"></line></g></g><g><g cursor="cell"><line x1="-400" y1="453" x2="-400" y2="305" stroke="red" stroke-width="8" opacity="0"></line><line x1="-400" y1="453" x2="-400" y2="305" stroke="#000000" stroke-width="2" stroke-linecap="round"></line></g></g><g><g cursor="cell"><line x1="-208" y1="601" x2="-208" y2="564" stroke="red" stroke-width="8" opacity="0"></line><line x1="-208" y1="601" x2="-208" y2="564" stroke="#000000" stroke-width="2" stroke-linecap="round"></line></g></g><g><g cursor="cell"><line x1="-348" y1="483" x2="-400" y2="453" stroke="red" stroke-width="8" opacity="0"></line><line x1="-348" y1="483" x2="-400" y2="453" stroke="#000000" stroke-width="2" stroke-linecap="round"></line></g></g><g><g><g cursor="cell"><line x1="-128" y1="407" x2="-90" y2="385" stroke="red" stroke-width="8" opacity="0"></line><line x1="-128" y1="407" x2="-90" y2="385" stroke="#000000" stroke-width="2" stroke-linecap="none"></line><polygon points="-80 379, -106 385, -92 386, -89 394, -80 379" stroke-linejoin="round" fill="#000000" stroke="#000000" stroke-width="1"></polygon></g><g cursor="cell"><line x1="-128" y1="426" x2="-128" y2="407" stroke="red" stroke-width="8" opacity="0"></line><line x1="-128" y1="426" x2="-128" y2="407" stroke="#000000" stroke-width="2" stroke-linecap="round"></line></g><g cursor="cell"><line x1="-80" y1="453" x2="-26" y2="422" stroke="red" stroke-width="8" opacity="0"></line><line x1="-80" y1="453" x2="-26" y2="422" stroke="#000000" stroke-width="2" stroke-linecap="none"></line><polygon points="-16 416, -42 422, -28 423, -25 431, -16 416" stroke-linejoin="round" fill="#000000" stroke="#000000" stroke-width="1"></polygon></g><g cursor="cell"><line x1="48" y1="527" x2="102" y2="496" stroke="red" stroke-width="8" opacity="0"></line><line x1="48" y1="527" x2="102" y2="496" stroke="#000000" stroke-width="2" stroke-linecap="none"></line><polygon points="112 490, 86 496, 100 497, 103 505, 112 490" stroke-linejoin="round" fill="#000000" stroke="#000000" stroke-width="1"></polygon></g><g cursor="cell"><line x1="128" y1="555" x2="166" y2="533" stroke="red" stroke-width="8" opacity="0"></line><line x1="128" y1="555" x2="166" y2="533" stroke="#000000" stroke-width="2" stroke-linecap="none"></line><polygon points="176 527, 150 533, 164 534, 167 542, 176 527" stroke-linejoin="round" fill="#000000" stroke="#000000" stroke-width="1"></polygon></g><g cursor="cell"><line x1="96" y1="555" x2="128" y2="555" stroke="red" stroke-width="8" opacity="0"></line><line x1="96" y1="555" x2="128" y2="555" stroke="#000000" stroke-width="2" stroke-linecap="round"></line></g><g cursor="cell"><line x1="-128" y1="426" x2="96" y2="555" stroke="red" stroke-width="8" opacity="0"></line><line x1="-128" y1="426" x2="96" y2="555" stroke="#000000" stroke-width="2" stroke-linecap="round"></line></g><g cursor="cell"><line x1="-63" y1="517" x2="-16" y2="490" stroke="red" stroke-width="8" opacity="0"></line><line x1="-63" y1="517" x2="-16" y2="490" stroke="#000000" stroke-width="2" stroke-linecap="round"></line></g></g></g></g><g pointer-events="auto"><g opacity="1"><g id="efaf6cdc-3f6b-4a03-9f3e-58be4f9bb2ab" transform="translate(0 0)"><svg x="-323" y="129" height="115.695" width="100.625" viewBox="0 0 26.624 30.611"><g fill-rule="evenodd"><path d="M13.312.306v15l12.99-7.5z" fill="#4286c5" stroke-width=".265"></path><path d="M.322 7.806l12.99 7.5v-15z" fill="#26527b" stroke-width=".265"></path><path d="M13.312.306v15" fill="none" stroke="#b7d1e9" stroke-width=".265"></path><path d="M13.312 15.306l12.99-7.5-6.495 18.75-6.495 3.75z" fill="#26527b" stroke-width=".265"></path><path d="M.322 7.806l12.99 7.5v15l-6.495-3.75z" fill="#326ca2" stroke-width=".265"></path><path d="M.322 7.806l12.99 7.5 12.99-7.5-12.99 7.5v15" fill="none" stroke="#deeaf5" stroke-width=".265"></path><path d="M13.312.306l-12.99 7.5 6.495 18.75 6.495 3.75 6.495-3.75 6.495-18.75z" fill="none" stroke="#000000" stroke-width=".529"></path></g></svg></g></g><g opacity="1"><g id="c90d5e2c-c692-4f73-8e30-d80e5c6fa403" transform="translate(0 0)"><svg x="-112" y="287" height="111" width="128" fill-rule="evenodd"><path d="M64 74v37l64-37V37L64 74z" fill="#b8b8bb"></path><path d="M0 37v37l64 37V74L0 37z" fill="#d2d2d4"></path><path d="M0 37L64 0l64 37-64 37L0 37z" fill="#ececed"></path><path d="M64 73.407l62.111-35.86.514.889-62.487 36.078h-.276L.743 38.072l.514-.89L64 73.407z" fill="#83838a"></path><path d="M63.486 74h1.027v36h-1.027z" fill="#83838a"></path><path d="M128 37v37l-64 37L0 74V37L64 0l64 37zM2.054 38.185v34.63L64 108.627l61.946-35.812v-34.63L64 2.373 2.054 38.185z" fill="#000000"></path></svg><svg x="-54" y="305" width="54" height="36" style="overflow: visible; cursor: default;"><rect transform="matrix(0.707 0.409 -0.707 0.409 0 0)" width="54" height="36" rx="5" ry="5" fill="#4286c5"></rect><text transform="matrix(0.707 0.409 -0.707 0.409 0 0)" font-family="Open Sans" text-anchor="middle" x="50%" font-weight="normal" font-size="20pt" y="80%" fill="#ffffff"><tspan>M3</tspan></text></svg></g></g><g opacity="1"><g id="62b6a890-1c4b-4a11-bf7f-25d37e6ee72c" transform="translate(0 0)"><svg x="-48" y="324" height="111" width="128" fill-rule="evenodd"><path d="M64 74v37l64-37V37L64 74z" fill="#b8b8bb"></path><path d="M0 37v37l64 37V74L0 37z" fill="#d2d2d4"></path><path d="M0 37L64 0l64 37-64 37L0 37z" fill="#ececed"></path><path d="M64 73.407l62.111-35.86.514.889-62.487 36.078h-.276L.743 38.072l.514-.89L64 73.407z" fill="#83838a"></path><path d="M63.486 74h1.027v36h-1.027z" fill="#83838a"></path><path d="M128 37v37l-64 37L0 74V37L64 0l64 37zM2.054 38.185v34.63L64 108.627l61.946-35.812v-34.63L64 2.373 2.054 38.185z" fill="#000000"></path></svg><svg x="10" y="342" width="54" height="36" style="overflow: visible; cursor: default;"><rect transform="matrix(0.707 0.409 -0.707 0.409 0 0)" width="54" height="36" rx="5" ry="5" fill="#4286c5"></rect><text transform="matrix(0.707 0.409 -0.707 0.409 0 0)" font-family="Open Sans" text-anchor="middle" x="50%" font-weight="normal" font-size="20pt" y="80%" fill="#ffffff"><tspan>M3</tspan></text></svg></g></g><g opacity="1"><g id="e80cc0c3-adbf-49fe-849d-816535638a29" transform="translate(0 0)"><svg x="80" y="398" height="111" width="128" fill-rule="evenodd"><path d="M64 74v37l64-37V37L64 74z" fill="#b8b8bb"></path><path d="M0 37v37l64 37V74L0 37z" fill="#d2d2d4"></path><path d="M0 37L64 0l64 37-64 37L0 37z" fill="#ececed"></path><path d="M64 73.407l62.111-35.86.514.889-62.487 36.078h-.276L.743 38.072l.514-.89L64 73.407z" fill="#83838a"></path><path d="M63.486 74h1.027v36h-1.027z" fill="#83838a"></path><path d="M128 37v37l-64 37L0 74V37L64 0l64 37zM2.054 38.185v34.63L64 108.627l61.946-35.812v-34.63L64 2.373 2.054 38.185z" fill="#000000"></path></svg><svg x="138" y="416" width="54" height="36" style="overflow: visible; cursor: default;"><rect transform="matrix(0.707 0.409 -0.707 0.409 0 0)" width="54" height="36" rx="5" ry="5" fill="#4286c5"></rect><text transform="matrix(0.707 0.409 -0.707 0.409 0 0)" font-family="Open Sans" text-anchor="middle" x="50%" font-weight="normal" font-size="20pt" y="80%" fill="#ffffff"><tspan>M3</tspan></text></svg></g></g><g opacity="1"><g id="9c786a2d-cf5c-4b63-b958-a97f28fe6494" transform="translate(0 0)"><svg x="144" y="435" height="111" width="128" fill-rule="evenodd"><path d="M64 74v37l64-37V37L64 74z" fill="#b8b8bb"></path><path d="M0 37v37l64 37V74L0 37z" fill="#d2d2d4"></path><path d="M0 37L64 0l64 37-64 37L0 37z" fill="#ececed"></path><path d="M64 73.407l62.111-35.86.514.889-62.487 36.078h-.276L.743 38.072l.514-.89L64 73.407z" fill="#83838a"></path><path d="M63.486 74h1.027v36h-1.027z" fill="#83838a"></path><path d="M128 37v37l-64 37L0 74V37L64 0l64 37zM2.054 38.185v34.63L64 108.627l61.946-35.812v-34.63L64 2.373 2.054 38.185z" fill="#000000"></path></svg><svg x="202" y="453" width="54" height="36" style="overflow: visible; cursor: default;"><rect transform="matrix(0.707 0.409 -0.707 0.409 0 0)" width="54" height="36" rx="5" ry="5" fill="#4286c5"></rect><text transform="matrix(0.707 0.409 -0.707 0.409 0 0)" font-family="Open Sans" text-anchor="middle" x="50%" font-weight="normal" font-size="20pt" y="80%" fill="#ffffff"><tspan>M3</tspan></text></svg></g></g><g opacity="1"><g id="4fa727c9-36b9-4773-bf99-258500555073" transform="translate(0 0)"><svg x="-160" y="481" height="94" width="97" fill-rule="evenodd"><path d="M0 18.6v18.6l32.333 18.6h32.334L97 37.2V18.6L64.667 0H32.333L0 18.6z" fill="#ececed"></path><path d="M64.667 55.8L97 37.2v37.2L64.667 93V55.8z" fill="#b8b8bb"></path><path d="M32.333 55.8h32.334V93H32.333V55.8zM0 37.2v37.2L32.333 93V55.8L0 37.2z" fill="#d2d2d4"></path><g fill="none" stroke="#83838a" stroke-width="1.04"><path d="M.955 37.877L32.333 55.8h32.334l31.378-17.923M32.333 55.8v36.211M64.667 55.8v36.574"></path></g><path d="M97 18.6v55.8L64.667 93H32.333L0 74.4V18.6L32.333 0h32.334L97 18.6zM32.865 1.989L1.989 19.751v53.498l30.876 17.762h31.27l30.876-17.762V19.751L64.135 1.989h-31.27z" fill="#000000"></path><path d="M69.912 15.583c11.818 6.798 11.818 17.836 0 24.635-11.817 6.798-31.007 6.798-42.824 0-11.818-6.799-11.818-17.837 0-24.635 11.817-6.799 31.007-6.799 42.824 0z" fill="#4286c5"></path><path d="M49.584 14.774c1.824 1.049 1.824 2.753 0 3.802-1.824 1.05-4.786 1.05-6.61 0-1.824-1.049-1.824-2.753 0-3.802 1.824-1.05 4.786-1.05 6.61 0zM60.451 21.025c1.825 1.049 1.825 2.753 0 3.803-1.824 1.049-4.786 1.049-6.61 0-1.824-1.05-1.824-2.754 0-3.803s4.786-1.049 6.61 0zM71.319 27.276c1.824 1.05 1.824 2.754 0 3.803-1.825 1.049-4.787 1.049-6.611 0-1.824-1.049-1.824-2.753 0-3.803 1.824-1.049 4.786-1.049 6.611 0zM38.497 33.654c1.824 1.05 1.824 2.754 0 3.803-1.825 1.05-4.787 1.05-6.611 0-1.824-1.049-1.824-2.753 0-3.803 1.824-1.049 4.786-1.049 6.611 0z" fill="#ffffff"></path><path d="M47.458 15.878c.453.26.393.717-.133 1.02-.526.303-1.32.337-1.773.076-.452-.26-.392-.717.133-1.019.526-.303 1.321-.337 1.773-.077z" fill="#ffffff"></path><path d="M48.111 15.621c1.012.582 1.012 1.526 0 2.108-1.011.582-2.653.582-3.664 0-1.012-.582-1.012-1.526 0-2.108 1.011-.582 2.653-.582 3.664 0zM58.978 21.872c1.012.582 1.012 1.527 0 2.108-1.011.582-2.653.582-3.664 0-1.012-.581-1.012-1.526 0-2.108 1.011-.581 2.653-.581 3.664 0zM69.846 28.124c1.011.581 1.011 1.526 0 2.108-1.012.582-2.654.582-3.665 0-1.011-.582-1.011-1.527 0-2.108 1.011-.582 2.653-.582 3.665 0z" fill="#4286c5"></path><path d="M37.024 34.502c1.011.582 1.011 1.526 0 2.108-1.012.582-2.654.582-3.665 0-1.011-.582-1.011-1.526 0-2.108 1.011-.582 2.653-.582 3.665 0z" fill="#ffffff"></path><g fill="#ffffff"><path d="M52.301 25.172L37.719 33.56l.482.834 14.584-8.388-.484-.834z"></path><path d="M46.993 26.089l6.654-1.146-4.324 5.168c.189-1.691-.757-3.313-2.33-4.022z" stroke="#ffffff" stroke-width=".36"></path></g><g fill="#ffffff"><path d="M43.488 19.937l-6.057 13.797.886.387 6.056-13.798-.885-.386z"></path><path d="M39.76 23.812l4.676-4.854-.405 6.716c-.855-1.474-2.582-2.221-4.271-1.862z" stroke="#ffffff" stroke-width=".36"></path></g><g fill="#ffffff"><path d="M61.953 30.061l-23.985 3.483.14.955 23.985-3.486-.14-.952z"></path><path d="M56.68 28.957l6.608 1.387-5.936 3.209c.804-1.503.526-3.358-.672-4.596h0z" stroke="#ffffff" stroke-width=".36"></path></g><path d="M37.96 33.977l13.12-7.547M37.873 33.927l5.792-13.134M38.037 34.022l22.478-3.281" fill="#ffffff" stroke="#ffffff" stroke-width="1.93"></path></svg></g></g><g opacity="1"><g id="f84564ab-d71e-4375-8df0-ad0fec124519" transform="translate(0 0)"><svg x="-352" y="389" height="148.142" width="93" viewBox="0 0 24.606 39.196"><g transform="translate(-90.671 -137.288)"><path d="M91.985 141.821l14.632 8.448 7.316-4.224-14.632-8.447z" fill="#ececed" fill-rule="evenodd" stroke-width=".268"></path><path d="M91.985 165.958l-1.045 1.81v-1.207z" fill="#d2d2d4" fill-rule="evenodd" stroke-width=".268"></path><path d="M91.985 165.958l14.632 8.447-1.046 1.81-14.566-8.56zM106.617 174.405l-1.046 1.81h2.09z" fill="#d2d2d4" fill-rule="evenodd" stroke-width=".268"></path><path d="M91.985 141.821v24.137l14.632 8.447V150.27z" fill="#d2d2d4" fill-rule="evenodd" stroke-width=".268"></path><path d="M106.617 174.405l1.045 1.81 7.316-4.223v-1.207l-1.045-.603z" fill="#b8b8bb" fill-rule="evenodd" stroke-width=".268"></path><path d="M106.617 150.27l7.316-4.225v24.137l-7.316 4.223z" fill="#b8b8bb" fill-rule="evenodd" stroke-width=".268"></path><g fill="none" fill-rule="evenodd" stroke="#83838a"><path d="M113.933 170.182l-7.316 4.223-14.632-8.447-1.045 1.81M91.985 141.821l14.632 8.448 7.316-4.224M106.617 150.27v24.135M105.571 176.216l1.046-1.81 1.045 1.81M113.933 170.182l1.045 1.81" stroke-width=".26818"></path></g><path d="M90.94 167.768v-1.207l1.045-.603V141.82l7.316-4.223 14.632 8.447v24.137l1.045.603v1.207l-7.316 4.224h-2.09z" fill="none" fill-rule="evenodd" stroke="#000000" stroke-width=".529"></path><ellipse cx="141.009" cy="74.394" fill="#4286c5" rx="6.047" ry="4.714" stroke-width=".278" transform="matrix(.19572 .98066 .96381 .26658 0 0)"></ellipse><ellipse cx="141.009" cy="74.394" fill="#ffffff" rx="5.037" ry="3.927" stroke-width=".278" transform="matrix(.19572 .98066 .96381 .26658 0 0)"></ellipse><path d="M99.03 153.239c-3.067 2.89-1.034 7.41.27 9.702" fill="none" fill-rule="evenodd" stroke="#4286c5" stroke-width=".51973284"></path><g transform="translate(374.17 163.896) scale(.26818)"><ellipse cx="272.14" cy="-1124.64" fill="#4286c5" rx="3.335" ry="2.648" transform="matrix(.19572 .98066 .96381 .26658 0 0)"></ellipse><ellipse cx="290.38" cy="-1128.297" fill="#4286c5" rx="3.687" ry="2.835" transform="matrix(.19572 .98066 .96381 .26658 0 0)"></ellipse><ellipse cx="290.282" cy="-1113.221" fill="#4286c5" rx="3.51" ry="2.717" transform="matrix(.19572 .98066 .96381 .26658 0 0)"></ellipse><path d="M-1033.087-41.48c4.26 21.344 17.38 30.943 23.61 33.65M-1039.896-25.075c12.675 15.122 22.864 16.4 30.106 8.948" fill="none" fill-rule="evenodd" stroke="#4286c5" stroke-width="1.938"></path></g></g></svg></g></g><g opacity="1"><g id="2685515d-0fdf-4c31-b26d-7cf5ad8c321d" transform="translate(0 0)"><svg x="-344" y="580" height="95.068" width="63" viewBox="0 0 16.669 25.153"><path d="M16.668 22.903q0 1.64-.864 2.091-.865.451-2.297-.376L3.161 18.645q-1.433-.827-2.297-2.276Q.001 14.921 0 13.28q0-.723.042-1.39.042-.666.166-1.394.124-.727.313-1.302.19-.575.51-1.039.319-.464.733-.683.414-.22 1.012-.147.598.073 1.32.49.107.06.497.58.391.52.882 1.165.491.646 1.279 1.394.788.75 1.58 1.207.793.458 1.58.618.788.161 1.28.083.49-.079.881-.147.39-.069.497-.007.722.416 1.32 1.035.598.619 1.013 1.315.414.697.734 1.531t.509 1.627q.19.793.313 1.664.124.872.166 1.586.042.713.042 1.438zM12.88 8.51q0 2.173-1.332 2.942-1.332.769-3.214-.318-1.882-1.086-3.214-3.393Q3.79 5.434 3.79 3.26q0-2.173 1.331-2.942 1.332-.77 3.214.317t3.214 3.394q1.332 2.306 1.332 4.48z" fill="#000" stroke="#000000" stroke-width=".268"></path></svg></g></g><g opacity="1"><g id="19f80e78-d646-44f5-8f94-d342e41656a5" transform="translate(0 0)"><svg x="-185" y="697" height="93.28" width="81" viewBox="0 0 21.431 24.68"><path d="M.268 5.102l12.537 7.238 5.224-.603 3.134-9.048L16.984.276 1.313 2.086z" fill="#ececed" fill-rule="evenodd" stroke-width=".268"></path><path d="M.268 5.102v12.064l12.537 7.238V12.34z" fill="#d2d2d4" fill-rule="evenodd" stroke-width=".268"></path><path d="M12.805 12.34l5.224-.603v12.064l-5.224.603z" fill="#d2d2d4" fill-rule="evenodd" stroke-width=".268"></path><path d="M18.029 11.737l3.134-9.048v12.064l-3.134 9.048z" fill="#b8b8bb" fill-rule="evenodd" stroke-width=".268"></path><path d="M.268 5.102l12.537 7.238 5.224-.603 3.134-9.048M18.029 11.737v12.064M12.805 12.34v12.064" fill="none" fill-rule="evenodd" stroke="#83838a" stroke-width=".265"></path><path d="M.268 17.166l12.537 7.238 5.224-.603 3.134-9.048V2.689L16.984.276 1.313 2.086.268 5.102z" fill="none" fill-rule="evenodd" stroke="#000000" stroke-width=".529"></path><path d="M16.852 3.319c-.637-.01-1.269-.156-1.755-.437-.486-.28-.738-.645-.756-1.013l-3.498.035c.11.43-.121.884-.694 1.215-.364.21-.812.34-1.282.391-.625.068-1.225.242-1.709.521-1.273.735-1.277 1.926-.013 2.664.733.423 1.145.956 1.247 1.509.957.059 1.88.296 2.613.72 1.279.73 3.34.727 4.614-.008.483-.28.784-.626.902-.987.089-.271.315-.53.678-.74.573-.33 1.36-.464 2.104-.4l.061-2.02c-.637-.01-1.269-.156-1.755-.437-.486-.28-.739-.645-.757-1.013z" fill="none" fill-rule="evenodd" stroke-linecap="round" stroke-width="0"></path><path d="M17.277 4.302c.467.27 1.056.427 1.664.471l-.05 1.693c-.73-.014-1.466.14-2.023.462-.404.234-.655.522-.754.824-.107.33-.381.647-.823.902-1.16.671-3.041.674-4.207.007-.722-.418-1.619-.665-2.555-.75-.144-.54-.573-1.06-1.296-1.477C6.081 5.759 6.086 4.672 7.247 4c.441-.256.989-.414 1.559-.476.522-.057 1.02-.203 1.424-.436.557-.322.823-.749.8-1.17l2.926-.03c.076.352.348.693.815.963.473.274 1.071.432 1.688.473.072.357.345.703.818.976z" fill="#4286c5" fill-rule="evenodd" stroke-width=".268"></path><g fill="#ffffff" font-family="Interstate" font-size="5.176" stroke-width=".268" style="line-height: 0%;"><path d="M11.246 3.567l1.863 1.078-.399.231-1.429-.826-.86.497q.139.04.259.09.122.049.225.108.588.34.609.725.021.385-.529.703-.566.327-1.233.305-.665-.023-1.307-.394-.22-.127-.414-.282-.19-.154-.36-.339l.478-.276q.096.19.265.352.17.163.421.309.407.235.858.249.45.013.818-.199.366-.212.343-.473-.024-.26-.43-.496-.19-.11-.423-.196-.23-.084-.517-.147zM14.127 7.104q.268.239.228.482-.038.245-.376.44-.52.3-1.16.259-.642-.042-1.3-.423-.221-.128-.412-.29-.19-.158-.352-.353l.458-.265q.082.18.259.35.176.17.432.319.446.258.855.29.412.035.748-.16.31-.179.265-.406-.04-.227-.428-.451l-.408-.237.39-.225.427.247q.35.202.675.23.326.026.59-.127.27-.156.22-.35-.044-.195-.401-.401-.195-.113-.461-.218-.266-.104-.623-.208l.423-.244q.346.112.618.227.275.115.484.236.54.313.609.638.07.323-.348.565-.291.168-.66.189-.367.019-.752-.114z" style="line-height: 1.25;"></path></g></svg></g></g></g><g pointer-events="auto"></g><g pointer-events="auto"><g opacity="1"><g id="b825b1ab-9e1f-4737-ae05-7f7087c27584" transform="translate(0 0)"><svg x="-400" y="305" overflow="visible"><g transform="scale(0.8944271909999159) matrix(0.707 0.409 -0.707 0.409 0 0)"><circle cx="0" cy="0" fill="#ffc107" r="23"></circle><svg width="27" height="32" x="-13.5" y="-16" style="fill: rgb(255, 255, 255);"><svg xmlns="http://www.w3.org/2000/svg" width="27" height="32" viewBox="0 0 27 32"><path d="M26.214 6.786c.661.661 1.214 1.982 1.214 2.929v20.571c0 .946-.768 1.714-1.714 1.714h-24A1.715 1.715 0 0 1 0 30.286V1.715C0 .769.768.001 1.714.001h16c.946 0 2.268.554 2.929 1.214zm-7.928-4.357v6.714H25c-.107-.304-.268-.607-.393-.732l-5.589-5.589c-.125-.125-.429-.286-.732-.393zm6.857 27.285V11.428h-7.429A1.715 1.715 0 0 1 16 9.714V2.285H2.286v27.429h22.857zm-11.429-16A2.302 2.302 0 0 1 16 16v6.857a2.302 2.302 0 0 1-2.286 2.286H6.857a2.302 2.302 0 0 1-2.286-2.286V16a2.302 2.302 0 0 1 2.286-2.286h6.857zm8.786.036a.585.585 0 0 1 .357.536v10.286a.586.586 0 0 1-.357.536.888.888 0 0 1-.214.036.597.597 0 0 1-.411-.161l-4.732-4.75v-1.607l4.732-4.75a.597.597 0 0 1 .411-.161c.071 0 .143.018.214.036z"></path></svg></svg></g></svg></g></g><g opacity="1"><g id="9fd806e5-adf8-44be-a1f0-370f89655e5e" transform="translate(0 0)"><svg x="-208" y="601" overflow="visible"><g transform="scale(0.8944271909999159) matrix(0.707 0.409 -0.707 0.409 0 0)"><circle cx="0" cy="0" fill="#000000" r="23"></circle><svg width="21" height="32" x="-10.5" y="-16" style="fill: rgb(255, 255, 255);"><svg xmlns="http://www.w3.org/2000/svg" width="21" height="32" viewBox="0 0 21 32"><path d="M5.714 13.714h9.143v-3.429c0-2.518-2.054-4.571-4.571-4.571s-4.571 2.054-4.571 4.571v3.429zm14.857 1.715v10.286c0 .946-.768 1.714-1.714 1.714H1.714A1.715 1.715 0 0 1 0 25.715V15.429c0-.946.768-1.714 1.714-1.714h.571v-3.429c0-4.393 3.607-8 8-8s8 3.607 8 8v3.429h.571c.946 0 1.714.768 1.714 1.714z"></path></svg></svg></g></svg></g></g><g opacity="1"><g id="352b8a1d-6884-4e38-8200-3f2d3875920d" transform="translate(0 0)"><svg x="208" y="638" overflow="visible"><g transform="scale(1.8866823560154478) matrix(0.707 0.409 -0.707 0.409 0 0)"><circle cx="0" cy="0" fill="transparent" r="37.5"></circle><svg width="75" height="75" x="-37.5" y="-37.5"><svg xmlns="http://www.w3.org/2000/svg" viewBox="0 0 75 75"><defs><linearGradient id="OrangeGradient" x1="-1139.35" y1="423.97" x2="-1139.35" y2="573.97" gradientTransform="rotate(-135 -646.5 24.5)" gradientUnits="userSpaceOnUse"><stop offset="0" stop-color="#c8511b"></stop><stop offset="1" stop-color="#f90"></stop></linearGradient></defs><g id="Reference"><path id="Orange_Gradient" data-name="Orange Gradient" fill="url(#OrangeGradient)" d="M0 0h75v75H0z"></path><path d="M52.5 47v-2c2.41 0 8-.72 8-7.4 0-4-2.35-6.51-7-7.44a1 1 0 0 1-.8-.93c-.23-3.9-2.5-5.29-4.37-5.29a4.11 4.11 0 0 0-3.26 1.66 1 1 0 0 1-1.73-.26 13 13 0 0 0-3.13-5A11.17 11.17 0 0 0 21 27.84a11.9 11.9 0 0 0 .08 1.34 1 1 0 0 1-.75 1.09c-2.18.54-5.84 2.2-5.84 7.24v.55A7.62 7.62 0 0 0 22.35 45h1.15v2h-1.15a9.62 9.62 0 0 1-9.83-8.81v-.66A8.91 8.91 0 0 1 19 28.57v-.73a13.18 13.18 0 0 1 22.6-8.91 14.67 14.67 0 0 1 3 4.28 5.94 5.94 0 0 1 3.7-1.29c2.8 0 5.75 2 6.3 6.42 5.08 1.25 7.87 4.51 7.87 9.24.03 6.94-5.14 9.42-9.97 9.42z" fill="#fff"></path><path d="M45.5 36.83a5.44 5.44 0 0 0-1 10.78V52h-6V34.93a5.44 5.44 0 1 0-2 0V47h-6v-1.93a5.44 5.44 0 1 0-2 0V48a1 1 0 0 0 1 1h7v11h2v-6h7a1 1 0 0 0 1-1v-5.39a5.44 5.44 0 0 0-1-10.78zm-19.44 2.91a3.44 3.44 0 1 1 3.44 3.43 3.44 3.44 0 0 1-3.44-3.43zm8-10.15A3.44 3.44 0 1 1 37.5 33a3.44 3.44 0 0 1-3.44-3.41zM45.5 45.71a3.44 3.44 0 1 1 3.44-3.44 3.44 3.44 0 0 1-3.44 3.44z" fill="#fff"></path></g></svg></svg></g></svg></g></g></g><g pointer-events="auto"><g opacity="1"><g id="a03116c5-19a1-4d69-94b5-4b62182a5bd3" transform="translate(0 0)"><svg x="-83" y="770" overflow="visible"><text stroke="#ffffff" stroke-width="4" font-family="Open Sans" y="25.099999999999998" font-size="15pt" fill="#f5b720" font-weight="bold" transform="matrix(0.707 0.409 -0.707 0.409 0 0)" xml:space="preserve"><tspan x="8" dy="0">Amazon</tspan></text><text font-family="Open Sans" y="25.099999999999998" font-size="15pt" fill="#f5b720" font-weight="bold" transform="matrix(0.707 0.409 -0.707 0.409 0 0)" xml:space="preserve"><tspan x="8" dy="0">Amazon</tspan></text></svg></g></g><g opacity="1"><g id="a80ac287-ab94-4685-9dfa-b4037e7bccc7" transform="translate(0 0)"><svg x="-96" y="777" overflow="visible"><text stroke="#ffffff" stroke-width="4" font-family="Open Sans" y="36.5" font-size="25pt" fill="#f5b720" font-weight="bold" transform="matrix(0.707 0.409 -0.707 0.409 0 0)" xml:space="preserve"><tspan x="8" dy="0">Route 53</tspan></text><text font-family="Open Sans" y="36.5" font-size="25pt" fill="#f5b720" font-weight="bold" transform="matrix(0.707 0.409 -0.707 0.409 0 0)" xml:space="preserve"><tspan x="8" dy="0">Route 53</tspan></text></svg></g></g><g opacity="1"><g id="284e5283-c400-4025-ab50-049f66efb11e" transform="translate(0 0)"><svg x="323" y="627" overflow="visible"><text stroke="#ffffff" stroke-width="4" font-family="Open Sans" y="36.5" font-size="25pt" fill="#004b91" font-weight="bold" transform="matrix(0.707 -0.409 0.707 0.409 0 0)" xml:space="preserve"><tspan x="8" dy="0">Auto</tspan><tspan x="8" dy="1.1em">Scaling</tspan></text><text font-family="Open Sans" y="36.5" font-size="25pt" fill="#004b91" font-weight="bold" transform="matrix(0.707 -0.409 0.707 0.409 0 0)" xml:space="preserve"><tspan x="8" dy="0">Auto</tspan><tspan x="8" dy="1.1em">Scaling</tspan></text></svg></g></g><g opacity="1"><g id="34e3c7b8-71a7-4231-8aab-5f31312f0f64" transform="translate(0 0)"><svg x="-48" y="546" overflow="visible"><text stroke="#ffffff" stroke-width="4" font-family="Open Sans" y="36.5" font-size="25pt" fill="#f5b720" font-weight="bold" transform="matrix(0.707 0.409 -0.707 0.409 0 0)" xml:space="preserve"><tspan x="8" dy="0">Elastic Load</tspan><tspan x="8" dy="1.1em">Balancing</tspan></text><text font-family="Open Sans" y="36.5" font-size="25pt" fill="#f5b720" font-weight="bold" transform="matrix(0.707 0.409 -0.707 0.409 0 0)" xml:space="preserve"><tspan x="8" dy="0">Elastic Load</tspan><tspan x="8" dy="1.1em">Balancing</tspan></text></svg></g></g><g opacity="1"><g id="f8a0f67f-5135-447e-89cb-aaf7c9fcaf77" transform="translate(0 0)"><svg x="-432" y="472" overflow="visible"><text stroke="#ffffff" stroke-width="4" font-family="Open Sans" y="36.5" font-size="25pt" fill="#ffc107" font-weight="bold" transform="matrix(0.707 0.409 -0.707 0.409 0 0)" xml:space="preserve"><tspan x="8" dy="0">CloudFront</tspan><tspan x="8" dy="1.1em">CDN</tspan></text><text font-family="Open Sans" y="36.5" font-size="25pt" fill="#ffc107" font-weight="bold" transform="matrix(0.707 0.409 -0.707 0.409 0 0)" xml:space="preserve"><tspan x="8" dy="0">CloudFront</tspan><tspan x="8" dy="1.1em">CDN</tspan></text></svg></g></g><g opacity="1"><g id="fd919d09-45b6-4938-a185-3afed1027e1c" transform="translate(0 0)"><svg x="-295" y="254" overflow="visible"><text stroke="#ffffff" stroke-width="4" font-family="Open Sans" y="36.5" font-size="25pt" fill="#ffc107" font-weight="bold" transform="matrix(0.707 0.409 -0.707 0.409 0 0)" xml:space="preserve"><tspan x="8" dy="0">S3</tspan></text><text font-family="Open Sans" y="36.5" font-size="25pt" fill="#ffc107" font-weight="bold" transform="matrix(0.707 0.409 -0.707 0.409 0 0)" xml:space="preserve"><tspan x="8" dy="0">S3</tspan></text></svg></g></g><g opacity="1"><g id="1a2dc397-a74c-4cd7-9741-ab02bcc41004" transform="translate(0 0)"><svg x="240" y="527" overflow="visible"><text stroke="#000000" stroke-width="2" font-family="Open Sans" y="36.5" font-size="25pt" fill="#ffffff" font-weight="bold" transform="matrix(0.707 0.409 -0.707 0.409 0 0)" xml:space="preserve"><tspan x="8" dy="0">EC2</tspan></text><text font-family="Open Sans" y="36.5" font-size="25pt" fill="#ffffff" font-weight="bold" transform="matrix(0.707 0.409 -0.707 0.409 0 0)" xml:space="preserve"><tspan x="8" dy="0">EC2</tspan></text></svg></g></g><g opacity="1"><g id="f581279c-99de-48f7-9fa0-5aaaf3ba5b29" transform="translate(0 0)"><svg x="-469" y="283" overflow="visible"><text stroke="#ffffff" stroke-width="4" font-family="Open Sans" y="25.099999999999998" font-size="15pt" fill="#607d8b" font-weight="bold" transform="matrix(0.707 -0.409 0.707 0.409 0 0)" xml:space="preserve"><tspan x="8" dy="0">Static</tspan><tspan x="8" dy="1.1em">Resources</tspan></text><text font-family="Open Sans" y="25.099999999999998" font-size="15pt" fill="#607d8b" font-weight="bold" transform="matrix(0.707 -0.409 0.707 0.409 0 0)" xml:space="preserve"><tspan x="8" dy="0">Static</tspan><tspan x="8" dy="1.1em">Resources</tspan></text></svg></g></g></g><g></g></g></svg>